<svg height="512" viewBox="0 0 256 256" width="512" xmlns="http://www.w3.org/2000/svg"><path d="m104.651 66.486h29.45v129.504h-29.45z" fill="#f0c020"/><path d="m104.651 76.472v16.458l29.45 16.667v-16.459z" fill="#4c4945"/><path d="m104.651 114.676v16.458l29.449 16.666v-16.457z" fill="#4c4945"/><path d="m104.651 152.881v16.458l29.45 16.666v-16.458z" fill="#4c4945"/><path d="m104.652 83.529v95.42h-94.61a4.02 4.02 0 0 1 -4.02-4.02v-87.38a4.02 4.02 0 0 1 4.02-4.02z" fill="#76ffba"/><path d="m96.792 83.529h7.86v95.42h-7.86z" fill="#13bf6d"/><path d="m104.652 95.6v71.28h-68.82a17.743 17.743 0 0 0 -17.74-17.74v-35.8a17.743 17.743 0 0 0 17.74-17.74z" fill="#13bf6d"/><path d="m96.792 95.599h7.86v71.28h-7.86z" fill="#139c6d"/><path d="m90.627 131.235a13.794 13.794 0 1 1 -13.8-13.79 13.8 13.8 0 0 1 13.8 13.79z" fill="#76ffba"/><path d="m206.952 97.729-8.38-4.89a2.247 2.247 0 0 0 -3.08.82c-2.22 3.81-4.52 8.11-7.1 12.58-1.78 3.1-3.71 6.27-5.85 9.42h-48.442v-5.05c17.035-7.1 25.787-17.752 34.48-32.64a2.259 2.259 0 0 0 -.81-3.08l-8.388-4.889a2.245 2.245 0 0 1 .56-4.11l37.65-9.91a2.255 2.255 0 0 1 2.75 1.6l9.92 37.63a2.252 2.252 0 0 1 -3.31 2.519z" fill="#13bf6d"/><path d="m188.392 106.239c-1.78 3.1-3.71 6.27-5.85 9.42h-48.442v-5.05a69.281 69.281 0 0 0 8.75-4.37z" fill="#139c6d"/><g fill="#f0c020"><path d="m128.391 35.32c-3.723-1.23-7.568-2.3-9.727-11.6-1.988 8.565-5.174 10.1-9.727 11.6 7.426 2.454 8.547 6.517 9.727 11.6 2.036-8.765 5.401-10.17 9.727-11.6z"/><path d="m156.992 46.922c-3.723-1.231-7.568-2.306-9.726-11.6-1.989 8.565-5.174 10.1-9.727 11.6 7.426 2.453 8.546 6.517 9.727 11.6 2.034-8.766 5.4-10.171 9.726-11.6z"/><path d="m126.6 220.674c-3.723-1.23-7.568-2.306-9.727-11.605-1.988 8.565-5.173 10.1-9.726 11.605 7.426 2.454 8.546 6.517 9.726 11.6 2.034-8.766 5.4-10.174 9.727-11.6z"/></g><path d="m249.322 132.829-27.53 27.53a2.251 2.251 0 0 1 -3.84-1.6v-9.71a2.245 2.245 0 0 0 -2.25-2.24h-36.03a92.477 92.477 0 0 0 -45.57-27.76v-3.39h81.6a2.245 2.245 0 0 0 2.25-2.24v-9.71a2.251 2.251 0 0 1 3.84-1.6l27.53 27.54a2.263 2.263 0 0 1 0 3.18z" fill="#13bf6d"/><path d="m190.6 146.809h-10.93a92.477 92.477 0 0 0 -45.57-27.76c27.142 2.19 45.942 12.085 56.5 27.76z" fill="#139c6d"/><path d="m206.952 164.739-8.38 4.89a2.244 2.244 0 0 1 -3.08-.81 128.72 128.72 0 0 0 -15.82-22v-.01a92.48 92.48 0 0 0 -45.57-27.76v32.82c17.88 7.41 26.44 18.83 34.48 32.64a2.263 2.263 0 0 1 -.81 3.08l-8.39 4.88a2.245 2.245 0 0 0 .56 4.11l37.65 9.92a2.255 2.255 0 0 0 2.75-1.6l9.92-37.64a2.252 2.252 0 0 0 -3.31-2.52z" fill="#13bf6d"/><path d="m123.813 191.905a2.5 2.5 0 0 1 -2.5-2.5v-116.333a2.5 2.5 0 0 1 5 0v116.333a2.5 2.5 0 0 1 -2.5 2.5z" fill="#f9e5af"/><path d="m123.813 106.279a2.5 2.5 0 0 1 -2.5-2.5v-16.461a2.5 2.5 0 0 1 5 0v16.461a2.5 2.5 0 0 1 -2.5 2.5z" fill="#878787"/><path d="m123.813 144.479a2.5 2.5 0 0 1 -2.5-2.5v-16.46a2.5 2.5 0 0 1 5 0v16.46a2.5 2.5 0 0 1 -2.5 2.5z" fill="#878787"/><path d="m123.813 182.688a2.5 2.5 0 0 1 -2.5-2.5v-16.459a2.5 2.5 0 0 1 5 0v16.459a2.5 2.5 0 0 1 -2.5 2.5z" fill="#878787"/><path d="m215.707 127.046h-1.452a2.5 2.5 0 0 1 0-5h1.452a2.5 2.5 0 0 1 0 5zm-11.452 0h-28a2.5 2.5 0 0 1 0-5h28a2.5 2.5 0 0 1 0 5z" fill="#76ffba"/><path d="m174.1 181.3q-.494-.847-1-1.7a2.5 2.5 0 0 1 4.3-2.555q.52.876 1.025 1.744a2.5 2.5 0 0 1 -4.325 2.511zm-6.288-9.967c-7.243-10.329-15.491-17.611-25.956-22.918a2.5 2.5 0 1 1 2.261-4.459c11.226 5.693 20.056 13.48 27.788 24.5a2.5 2.5 0 1 1 -4.093 2.872z" fill="#76ffba"/><path d="m108.153 37.694c6.285 2.076 7 5.147 8.075 9.8a2.5 2.5 0 0 0 4.871 0c1.791-7.72 4.427-8.591 8.076-9.8a2.5 2.5 0 0 0 0-4.748c-3.505-1.154-6.243-1.9-8.076-9.8a2.5 2.5 0 0 0 -4.87 0c-1.793 7.72-4.292 8.546-8.076 9.8a2.5 2.5 0 0 0 0 4.748zm10.52-6.676a12.756 12.756 0 0 0 3.739 4.325 12.372 12.372 0 0 0 -3.7 4.173 12.993 12.993 0 0 0 -3.914-4.139 12.388 12.388 0 0 0 3.875-4.359z"/><path d="m136.755 49.3c6.284 2.076 7 5.147 8.075 9.8a2.5 2.5 0 0 0 4.871 0c1.791-7.719 4.427-8.59 8.075-9.8a2.5 2.5 0 0 0 0-4.748c-3.505-1.155-6.243-1.9-8.075-9.8a2.5 2.5 0 0 0 -4.87 0c-1.793 7.719-4.292 8.546-8.076 9.8a2.5 2.5 0 0 0 0 4.748zm10.52-6.677a12.76 12.76 0 0 0 3.739 4.326 12.371 12.371 0 0 0 -3.7 4.172 12.98 12.98 0 0 0 -3.914-4.138 12.393 12.393 0 0 0 3.875-4.364z"/><path d="m114.437 232.843a2.5 2.5 0 0 0 4.871 0c1.79-7.719 4.426-8.59 8.075-9.795a2.5 2.5 0 0 0 0-4.748c-3.5-1.155-6.243-1.9-8.076-9.8a2.5 2.5 0 0 0 -4.87 0c-1.792 7.72-4.292 8.546-8.075 9.8a2.5 2.5 0 0 0 0 4.748c6.284 2.076 6.997 5.152 8.075 9.795zm2.445-16.471a12.754 12.754 0 0 0 3.738 4.325 12.363 12.363 0 0 0 -3.7 4.173 12.972 12.972 0 0 0 -3.914-4.139 12.408 12.408 0 0 0 3.876-4.359z"/><path d="m93.127 131.235a16.294 16.294 0 1 0 -16.3 16.3 16.313 16.313 0 0 0 16.3-16.3zm-27.588 0a11.294 11.294 0 1 1 11.29 11.3 11.3 11.3 0 0 1 -11.29-11.3z"/><circle cx="18.088" cy="130.11" r="2.5"/><circle cx="51.038" cy="83.53" r="2.5"/><path d="m10.038 181.45h92.112v14.541a2.5 2.5 0 0 0 5 0v-22.365l24.45 13.837v8.528a2.5 2.5 0 0 0 5 0v-40.266c14.073 6.7 21.726 16.174 29.7 29.829l-8.175 4.756a4.747 4.747 0 0 0 1.18 8.69l37.638 9.917a4.752 4.752 0 0 0 5.816-3.377l9.921-37.64a4.755 4.755 0 0 0 -6.988-5.315l-8.166 4.764a136.185 136.185 0 0 0 -12.417-18.035h30.343v9.45a4.754 4.754 0 0 0 8.108 3.367l27.529-27.53a4.768 4.768 0 0 0 0-6.715l-27.529-27.546a4.754 4.754 0 0 0 -8.108 3.368v9.451h-28.3c3.953-6.293 7.262-12.666 10.379-18.034l8.175 4.771a4.755 4.755 0 0 0 6.973-5.325l-9.922-37.636a4.751 4.751 0 0 0 -5.8-3.374l-37.641 9.908a4.747 4.747 0 0 0 -1.192 8.689l8.174 4.765c-7.936 13.556-15.661 23.061-29.7 29.815v-40.252a2.5 2.5 0 1 0 -5 0v22.365l-24.448-13.837v-8.528a2.5 2.5 0 1 0 -5 0v14.544h-41.112a2.5 2.5 0 1 0 0 5h41.11v7.07h-66.32a2.512 2.512 0 0 0 -2.5 2.5 15.294 15.294 0 0 1 -15.24 15.24 2.513 2.513 0 0 0 -2.5 2.5v6.77a2.5 2.5 0 0 0 5 0v-4.42a20.282 20.282 0 0 0 17.59-17.59h63.97v66.28h-63.97a20.281 20.281 0 0 0 -17.59-17.59v-6.68a2.5 2.5 0 0 0 -5 0v9.03a2.512 2.512 0 0 0 2.5 2.5 15.287 15.287 0 0 1 15.24 15.24 2.511 2.511 0 0 0 2.5 2.5h66.32v7.07h-92.11a1.517 1.517 0 0 1 -1.51-1.52v-87.38a1.517 1.517 0 0 1 1.51-1.52h31a2.5 2.5 0 0 0 0-5h-31a6.525 6.525 0 0 0 -6.51 6.52v87.38a6.532 6.532 0 0 0 6.51 6.52zm205.662-63.291a4.751 4.751 0 0 0 4.75-4.741v-9.118l26.925 26.934-26.925 26.925v-9.115a4.75 4.75 0 0 0 -4.75-4.739h-34.945a94.591 94.591 0 0 0 -40.861-26.15zm-79.1-5.915c16.4-7.261 25.191-17.686 34.149-33.031a4.765 4.765 0 0 0 -1.719-6.484l-7.857-4.58 36.815-9.69 9.7 36.807-7.875-4.6a4.764 4.764 0 0 0 -6.484 1.73c-3.791 6.5-7.315 13.5-12.131 20.759h-44.598zm0 10.111c25.894 7.8 43.255 24.531 56.731 47.723a4.743 4.743 0 0 0 6.5 1.71l7.859-4.586-9.7 36.816-36.814-9.7 7.866-4.575a4.773 4.773 0 0 0 1.7-6.492c-8.685-14.92-17.525-25.707-34.141-33.012zm-29.451-41.6 24.451 13.845v10.713l-24.45-13.841zm0 16.458 24.451 13.842v16l-24.45-13.837zm0 21.747 24.451 13.84v10.713l-24.45-13.837zm0 16.458 24.451 13.841v16l-24.45-13.837zm0 21.746 24.451 13.841v10.713l-24.45-13.837z"/><path d="m45 137.373v-12.273a2.5 2.5 0 0 0 -5 0v12.269a2.5 2.5 0 0 0 5 0z"/></svg>